<mxfile host="app.diagrams.net" modified="2024-04-09T19:13:00.986Z" agent="Mozilla/5.0 (Windows NT 10.0; Win64; x64; rv:124.0) Gecko/20100101 Firefox/124.0" etag="LunMvDTXl_1gTeKsBjHT" version="24.2.1" type="device">
  <diagram id="ZGsrpWR1NVM_2zba_kIB" name="Page-1">
    <mxGraphModel dx="2440" dy="887" grid="1" gridSize="10" guides="1" tooltips="1" connect="1" arrows="1" fold="1" page="1" pageScale="1" pageWidth="850" pageHeight="1100" math="0" shadow="0">
      <root>
        <mxCell id="0" />
        <mxCell id="1" parent="0" />
        <mxCell id="QDIsxMyGxRR1aWsx_3we-1" style="edgeStyle=orthogonalEdgeStyle;rounded=0;orthogonalLoop=1;jettySize=auto;html=1;exitX=0.5;exitY=0;exitDx=0;exitDy=0;entryX=1;entryY=0.5;entryDx=0;entryDy=0;endArrow=none;endFill=0;" edge="1" parent="1" source="QDIsxMyGxRR1aWsx_3we-6" target="QDIsxMyGxRR1aWsx_3we-22">
          <mxGeometry relative="1" as="geometry" />
        </mxCell>
        <mxCell id="QDIsxMyGxRR1aWsx_3we-2" style="edgeStyle=orthogonalEdgeStyle;rounded=0;orthogonalLoop=1;jettySize=auto;html=1;exitX=0.5;exitY=0;exitDx=0;exitDy=0;entryX=1;entryY=0.5;entryDx=0;entryDy=0;endArrow=none;endFill=0;" edge="1" parent="1" source="QDIsxMyGxRR1aWsx_3we-6" target="QDIsxMyGxRR1aWsx_3we-23">
          <mxGeometry relative="1" as="geometry" />
        </mxCell>
        <mxCell id="QDIsxMyGxRR1aWsx_3we-3" value="1" style="edgeStyle=orthogonalEdgeStyle;rounded=0;orthogonalLoop=1;jettySize=auto;html=1;exitX=0.5;exitY=1;exitDx=0;exitDy=0;entryX=0.5;entryY=0;entryDx=0;entryDy=0;endArrow=none;endFill=0;" edge="1" parent="1" source="QDIsxMyGxRR1aWsx_3we-6" target="QDIsxMyGxRR1aWsx_3we-21">
          <mxGeometry x="-0.6364" y="10" relative="1" as="geometry">
            <mxPoint as="offset" />
          </mxGeometry>
        </mxCell>
        <mxCell id="QDIsxMyGxRR1aWsx_3we-4" style="edgeStyle=orthogonalEdgeStyle;rounded=0;orthogonalLoop=1;jettySize=auto;html=1;entryX=0;entryY=0.5;entryDx=0;entryDy=0;endArrow=none;endFill=0;" edge="1" parent="1" source="QDIsxMyGxRR1aWsx_3we-6" target="QDIsxMyGxRR1aWsx_3we-45">
          <mxGeometry relative="1" as="geometry" />
        </mxCell>
        <mxCell id="QDIsxMyGxRR1aWsx_3we-5" value="1" style="edgeStyle=orthogonalEdgeStyle;rounded=0;orthogonalLoop=1;jettySize=auto;html=1;exitX=1;exitY=0.5;exitDx=0;exitDy=0;entryX=0;entryY=0.5;entryDx=0;entryDy=0;endArrow=none;endFill=0;" edge="1" parent="1" source="QDIsxMyGxRR1aWsx_3we-6" target="QDIsxMyGxRR1aWsx_3we-51">
          <mxGeometry x="-0.6667" y="10" relative="1" as="geometry">
            <mxPoint as="offset" />
          </mxGeometry>
        </mxCell>
        <mxCell id="QDIsxMyGxRR1aWsx_3we-6" value="Книга" style="whiteSpace=wrap;html=1;align=center;" vertex="1" parent="1">
          <mxGeometry x="1280" y="450" width="100" height="40" as="geometry" />
        </mxCell>
        <mxCell id="QDIsxMyGxRR1aWsx_3we-7" style="edgeStyle=orthogonalEdgeStyle;rounded=0;orthogonalLoop=1;jettySize=auto;html=1;exitX=0.5;exitY=1;exitDx=0;exitDy=0;entryX=1;entryY=0.5;entryDx=0;entryDy=0;endArrow=none;endFill=0;" edge="1" parent="1" source="QDIsxMyGxRR1aWsx_3we-12" target="QDIsxMyGxRR1aWsx_3we-41">
          <mxGeometry relative="1" as="geometry" />
        </mxCell>
        <mxCell id="QDIsxMyGxRR1aWsx_3we-8" style="edgeStyle=orthogonalEdgeStyle;rounded=0;orthogonalLoop=1;jettySize=auto;html=1;exitX=0.5;exitY=1;exitDx=0;exitDy=0;entryX=1;entryY=0.5;entryDx=0;entryDy=0;endArrow=none;endFill=0;" edge="1" parent="1" source="QDIsxMyGxRR1aWsx_3we-12" target="QDIsxMyGxRR1aWsx_3we-42">
          <mxGeometry relative="1" as="geometry" />
        </mxCell>
        <mxCell id="QDIsxMyGxRR1aWsx_3we-9" style="edgeStyle=orthogonalEdgeStyle;rounded=0;orthogonalLoop=1;jettySize=auto;html=1;entryX=0;entryY=0.5;entryDx=0;entryDy=0;endArrow=none;endFill=0;" edge="1" parent="1" source="QDIsxMyGxRR1aWsx_3we-12" target="QDIsxMyGxRR1aWsx_3we-43">
          <mxGeometry relative="1" as="geometry" />
        </mxCell>
        <mxCell id="QDIsxMyGxRR1aWsx_3we-10" style="edgeStyle=orthogonalEdgeStyle;rounded=0;orthogonalLoop=1;jettySize=auto;html=1;entryX=0;entryY=0.5;entryDx=0;entryDy=0;endArrow=none;endFill=0;" edge="1" parent="1" source="QDIsxMyGxRR1aWsx_3we-12" target="QDIsxMyGxRR1aWsx_3we-46">
          <mxGeometry relative="1" as="geometry" />
        </mxCell>
        <mxCell id="QDIsxMyGxRR1aWsx_3we-11" style="edgeStyle=orthogonalEdgeStyle;rounded=0;orthogonalLoop=1;jettySize=auto;html=1;entryX=0;entryY=0.5;entryDx=0;entryDy=0;endArrow=none;endFill=0;" edge="1" parent="1" source="QDIsxMyGxRR1aWsx_3we-12" target="QDIsxMyGxRR1aWsx_3we-93">
          <mxGeometry relative="1" as="geometry" />
        </mxCell>
        <mxCell id="QDIsxMyGxRR1aWsx_3we-12" value="Заявка" style="whiteSpace=wrap;html=1;align=center;" vertex="1" parent="1">
          <mxGeometry x="1280" y="650" width="100" height="40" as="geometry" />
        </mxCell>
        <mxCell id="QDIsxMyGxRR1aWsx_3we-13" style="edgeStyle=orthogonalEdgeStyle;rounded=0;orthogonalLoop=1;jettySize=auto;html=1;entryX=0.5;entryY=1;entryDx=0;entryDy=0;endArrow=none;endFill=0;" edge="1" parent="1" target="QDIsxMyGxRR1aWsx_3we-67">
          <mxGeometry relative="1" as="geometry">
            <mxPoint x="1030" y="740.5142857142857" as="sourcePoint" />
            <Array as="points">
              <mxPoint x="970" y="740" />
            </Array>
          </mxGeometry>
        </mxCell>
        <mxCell id="QDIsxMyGxRR1aWsx_3we-14" style="edgeStyle=orthogonalEdgeStyle;rounded=0;orthogonalLoop=1;jettySize=auto;html=1;entryX=0.5;entryY=0;entryDx=0;entryDy=0;endArrow=none;endFill=0;exitX=1;exitY=0.5;exitDx=0;exitDy=0;" edge="1" parent="1" target="QDIsxMyGxRR1aWsx_3we-68">
          <mxGeometry relative="1" as="geometry">
            <mxPoint x="1130" y="740.5" as="sourcePoint" />
            <Array as="points">
              <mxPoint x="970" y="740" />
            </Array>
          </mxGeometry>
        </mxCell>
        <mxCell id="QDIsxMyGxRR1aWsx_3we-15" style="edgeStyle=orthogonalEdgeStyle;rounded=0;orthogonalLoop=1;jettySize=auto;html=1;exitX=0.5;exitY=0;exitDx=0;exitDy=0;entryX=1;entryY=0.5;entryDx=0;entryDy=0;endArrow=none;endFill=0;" edge="1" parent="1" source="QDIsxMyGxRR1aWsx_3we-20" target="QDIsxMyGxRR1aWsx_3we-63">
          <mxGeometry relative="1" as="geometry">
            <Array as="points">
              <mxPoint x="1640" y="400" />
            </Array>
          </mxGeometry>
        </mxCell>
        <mxCell id="QDIsxMyGxRR1aWsx_3we-16" style="edgeStyle=orthogonalEdgeStyle;rounded=0;orthogonalLoop=1;jettySize=auto;html=1;exitX=0.5;exitY=0;exitDx=0;exitDy=0;entryX=0;entryY=0.5;entryDx=0;entryDy=0;endArrow=none;endFill=0;" edge="1" parent="1" source="QDIsxMyGxRR1aWsx_3we-20" target="QDIsxMyGxRR1aWsx_3we-60">
          <mxGeometry relative="1" as="geometry">
            <Array as="points">
              <mxPoint x="1640" y="419" />
            </Array>
          </mxGeometry>
        </mxCell>
        <mxCell id="QDIsxMyGxRR1aWsx_3we-17" style="edgeStyle=orthogonalEdgeStyle;rounded=0;orthogonalLoop=1;jettySize=auto;html=1;entryX=-0.001;entryY=0.567;entryDx=0;entryDy=0;entryPerimeter=0;endArrow=none;endFill=0;" edge="1" parent="1" source="QDIsxMyGxRR1aWsx_3we-20" target="QDIsxMyGxRR1aWsx_3we-61">
          <mxGeometry relative="1" as="geometry">
            <Array as="points">
              <mxPoint x="1640" y="373" />
            </Array>
          </mxGeometry>
        </mxCell>
        <mxCell id="QDIsxMyGxRR1aWsx_3we-18" style="edgeStyle=orthogonalEdgeStyle;rounded=0;orthogonalLoop=1;jettySize=auto;html=1;entryX=1;entryY=0.5;entryDx=0;entryDy=0;endArrow=none;endFill=0;" edge="1" parent="1" source="QDIsxMyGxRR1aWsx_3we-20" target="QDIsxMyGxRR1aWsx_3we-64">
          <mxGeometry relative="1" as="geometry">
            <Array as="points">
              <mxPoint x="1640" y="349" />
            </Array>
          </mxGeometry>
        </mxCell>
        <mxCell id="QDIsxMyGxRR1aWsx_3we-19" style="edgeStyle=orthogonalEdgeStyle;rounded=0;orthogonalLoop=1;jettySize=auto;html=1;entryX=0;entryY=0.5;entryDx=0;entryDy=0;endArrow=none;endFill=0;" edge="1" parent="1" source="QDIsxMyGxRR1aWsx_3we-20" target="QDIsxMyGxRR1aWsx_3we-62">
          <mxGeometry relative="1" as="geometry">
            <Array as="points">
              <mxPoint x="1640" y="319" />
            </Array>
          </mxGeometry>
        </mxCell>
        <mxCell id="QDIsxMyGxRR1aWsx_3we-20" value="Отзывы" style="whiteSpace=wrap;html=1;align=center;" vertex="1" parent="1">
          <mxGeometry x="1590" y="450" width="100" height="40" as="geometry" />
        </mxCell>
        <mxCell id="QDIsxMyGxRR1aWsx_3we-21" value="Содержит" style="shape=rhombus;perimeter=rhombusPerimeter;whiteSpace=wrap;html=1;align=center;" vertex="1" parent="1">
          <mxGeometry x="1281" y="545" width="98" height="50" as="geometry" />
        </mxCell>
        <mxCell id="QDIsxMyGxRR1aWsx_3we-22" value="Название" style="ellipse;whiteSpace=wrap;html=1;align=center;" vertex="1" parent="1">
          <mxGeometry x="1210" y="390" width="100" height="40" as="geometry" />
        </mxCell>
        <mxCell id="QDIsxMyGxRR1aWsx_3we-23" value="Кол-во страниц" style="ellipse;whiteSpace=wrap;html=1;align=center;" vertex="1" parent="1">
          <mxGeometry x="1210" y="330" width="100" height="40" as="geometry" />
        </mxCell>
        <mxCell id="QDIsxMyGxRR1aWsx_3we-24" value="Фамилия" style="ellipse;whiteSpace=wrap;html=1;align=center;" vertex="1" parent="1">
          <mxGeometry x="1530" y="969" width="100" height="40" as="geometry" />
        </mxCell>
        <mxCell id="QDIsxMyGxRR1aWsx_3we-25" value="Имя" style="ellipse;whiteSpace=wrap;html=1;align=center;" vertex="1" parent="1">
          <mxGeometry x="1530" y="919" width="100" height="40" as="geometry" />
        </mxCell>
        <mxCell id="QDIsxMyGxRR1aWsx_3we-26" value="Отчество" style="ellipse;whiteSpace=wrap;html=1;align=center;" vertex="1" parent="1">
          <mxGeometry x="1530" y="869" width="100" height="40" as="geometry" />
        </mxCell>
        <mxCell id="QDIsxMyGxRR1aWsx_3we-27" value="Пол" style="ellipse;whiteSpace=wrap;html=1;align=center;" vertex="1" parent="1">
          <mxGeometry x="1660" y="901" width="100" height="40" as="geometry" />
        </mxCell>
        <mxCell id="QDIsxMyGxRR1aWsx_3we-28" value="Дата рождения" style="ellipse;whiteSpace=wrap;html=1;align=center;" vertex="1" parent="1">
          <mxGeometry x="1660" y="850" width="100" height="40" as="geometry" />
        </mxCell>
        <mxCell id="QDIsxMyGxRR1aWsx_3we-29" value="Пароль (hash)" style="ellipse;whiteSpace=wrap;html=1;align=center;" vertex="1" parent="1">
          <mxGeometry x="1660" y="800" width="100" height="40" as="geometry" />
        </mxCell>
        <mxCell id="QDIsxMyGxRR1aWsx_3we-30" value="Права доступа" style="ellipse;whiteSpace=wrap;html=1;align=center;" vertex="1" parent="1">
          <mxGeometry x="1530" y="819" width="100" height="40" as="geometry" />
        </mxCell>
        <mxCell id="QDIsxMyGxRR1aWsx_3we-31" value="email" style="ellipse;whiteSpace=wrap;html=1;align=center;" vertex="1" parent="1">
          <mxGeometry x="1530" y="769" width="100" height="40" as="geometry" />
        </mxCell>
        <mxCell id="QDIsxMyGxRR1aWsx_3we-32" style="edgeStyle=orthogonalEdgeStyle;rounded=0;orthogonalLoop=1;jettySize=auto;html=1;endArrow=none;endFill=0;" edge="1" parent="1" source="QDIsxMyGxRR1aWsx_3we-34">
          <mxGeometry relative="1" as="geometry">
            <mxPoint x="1590" y="670" as="targetPoint" />
          </mxGeometry>
        </mxCell>
        <mxCell id="QDIsxMyGxRR1aWsx_3we-33" value="1" style="edgeLabel;html=1;align=center;verticalAlign=middle;resizable=0;points=[];" vertex="1" connectable="0" parent="QDIsxMyGxRR1aWsx_3we-32">
          <mxGeometry x="0.2131" y="-1" relative="1" as="geometry">
            <mxPoint x="7" y="-14" as="offset" />
          </mxGeometry>
        </mxCell>
        <mxCell id="QDIsxMyGxRR1aWsx_3we-34" value="Создать" style="shape=rhombus;perimeter=rhombusPerimeter;whiteSpace=wrap;html=1;align=center;" vertex="1" parent="1">
          <mxGeometry x="1440" y="645" width="98" height="50" as="geometry" />
        </mxCell>
        <mxCell id="QDIsxMyGxRR1aWsx_3we-35" value="" style="edgeStyle=orthogonalEdgeStyle;fontSize=12;html=1;endArrow=ERmany;rounded=0;exitX=0;exitY=0.5;exitDx=0;exitDy=0;entryX=1;entryY=0.5;entryDx=0;entryDy=0;" edge="1" parent="1" source="QDIsxMyGxRR1aWsx_3we-34" target="QDIsxMyGxRR1aWsx_3we-12">
          <mxGeometry width="100" height="100" relative="1" as="geometry">
            <mxPoint x="1490" y="610" as="sourcePoint" />
            <mxPoint x="1590" y="510" as="targetPoint" />
          </mxGeometry>
        </mxCell>
        <mxCell id="QDIsxMyGxRR1aWsx_3we-36" value="n" style="edgeLabel;html=1;align=center;verticalAlign=middle;resizable=0;points=[];" vertex="1" connectable="0" parent="QDIsxMyGxRR1aWsx_3we-35">
          <mxGeometry x="0.8768" relative="1" as="geometry">
            <mxPoint x="6" y="-10" as="offset" />
          </mxGeometry>
        </mxCell>
        <mxCell id="QDIsxMyGxRR1aWsx_3we-37" value="" style="edgeStyle=orthogonalEdgeStyle;fontSize=12;html=1;endArrow=ERmany;rounded=0;exitX=0.5;exitY=1;exitDx=0;exitDy=0;entryX=0.5;entryY=0;entryDx=0;entryDy=0;" edge="1" parent="1" source="QDIsxMyGxRR1aWsx_3we-21" target="QDIsxMyGxRR1aWsx_3we-12">
          <mxGeometry width="100" height="100" relative="1" as="geometry">
            <mxPoint x="1490" y="610" as="sourcePoint" />
            <mxPoint x="1590" y="510" as="targetPoint" />
            <Array as="points">
              <mxPoint x="1330" y="610" />
              <mxPoint x="1330" y="610" />
            </Array>
          </mxGeometry>
        </mxCell>
        <mxCell id="QDIsxMyGxRR1aWsx_3we-38" value="n" style="edgeLabel;html=1;align=center;verticalAlign=middle;resizable=0;points=[];" vertex="1" connectable="0" parent="QDIsxMyGxRR1aWsx_3we-37">
          <mxGeometry x="0.2364" y="-1" relative="1" as="geometry">
            <mxPoint x="11" as="offset" />
          </mxGeometry>
        </mxCell>
        <mxCell id="QDIsxMyGxRR1aWsx_3we-39" style="edgeStyle=orthogonalEdgeStyle;rounded=0;orthogonalLoop=1;jettySize=auto;html=1;exitX=1;exitY=0.5;exitDx=0;exitDy=0;entryX=0.5;entryY=0;entryDx=0;entryDy=0;endArrow=none;endFill=0;" edge="1" parent="1" source="QDIsxMyGxRR1aWsx_3we-40" target="QDIsxMyGxRR1aWsx_3we-6">
          <mxGeometry relative="1" as="geometry" />
        </mxCell>
        <mxCell id="QDIsxMyGxRR1aWsx_3we-40" value="Год издания" style="ellipse;whiteSpace=wrap;html=1;align=center;" vertex="1" parent="1">
          <mxGeometry x="1210" y="270" width="100" height="40" as="geometry" />
        </mxCell>
        <mxCell id="QDIsxMyGxRR1aWsx_3we-41" value="Идентификатор&lt;br&gt;книги&lt;span style=&quot;color: rgba(0, 0, 0, 0); font-family: monospace; font-size: 0px; text-align: start;&quot;&gt;%3CmxGraphModel%3E%3Croot%3E%3CmxCell%20id%3D%220%22%2F%3E%3CmxCell%20id%3D%221%22%20parent%3D%220%22%2F%3E%3CmxCell%20id%3D%222%22%20value%3D%22%D0%9E%D0%B1%D1%89%D0%B8%D0%B9%20%D1%80%D0%B5%D0%B9%D1%82%D0%B8%D0%BD%D0%B3%22%20style%3D%22ellipse%3BwhiteSpace%3Dwrap%3Bhtml%3D1%3Balign%3Dcenter%3B%22%20vertex%3D%221%22%20parent%3D%221%22%3E%3CmxGeometry%20x%3D%22240%22%20y%3D%22260%22%20width%3D%22100%22%20height%3D%2240%22%20as%3D%22geometry%22%2F%3E%3C%2FmxCell%3E%3C%2Froot%3E%3C%2FmxGraphModel%&lt;/span&gt;" style="ellipse;whiteSpace=wrap;html=1;align=center;" vertex="1" parent="1">
          <mxGeometry x="1210" y="710" width="100" height="40" as="geometry" />
        </mxCell>
        <mxCell id="QDIsxMyGxRR1aWsx_3we-42" value="Идентификатор&lt;br&gt;пользователя&lt;span style=&quot;color: rgba(0, 0, 0, 0); font-family: monospace; font-size: 0px; text-align: start;&quot;&gt;%3CmxGraphModel%3E%3Croot%3E%3CmxCell%20id%3D%220%22%2F%3E%3CmxCell%20id%3D%221%22%20parent%3D%220%22%2F%3E%3CmxCell%20id%3D%222%22%20value%3D%22%D0%9E%D0%B1%D1%89%D0%B8%D0%B9%20%D1%80%D0%B5%D0%B9%D1%82%D0%B8%D0%BD%D0%B3%22%20style%3D%22ellipse%3BwhiteSpace%3Dwrap%3Bhtml%3D1%3Balign%3Dcenter%3B%22%20vertex%3D%221%22%20parent%3D%221%22%3E%3CmxGeometry%20x%3D%22240%22%20y%3D%22260%22%20width%3D%22100%22%20height%3D%2240%22%20as%3D%22geometry%22%2F%3E%3C%2FmxCell%3E%3C%2Froot%3E%3C%2FmxGraphModel%&lt;/span&gt;" style="ellipse;whiteSpace=wrap;html=1;align=center;" vertex="1" parent="1">
          <mxGeometry x="1210" y="770" width="100" height="40" as="geometry" />
        </mxCell>
        <mxCell id="QDIsxMyGxRR1aWsx_3we-43" value="Состояние" style="ellipse;whiteSpace=wrap;html=1;align=center;" vertex="1" parent="1">
          <mxGeometry x="1350" y="700" width="100" height="40" as="geometry" />
        </mxCell>
        <mxCell id="QDIsxMyGxRR1aWsx_3we-44" value="Идентификатор" style="ellipse;whiteSpace=wrap;html=1;align=center;" vertex="1" parent="1">
          <mxGeometry x="1660" y="750" width="100" height="40" as="geometry" />
        </mxCell>
        <mxCell id="QDIsxMyGxRR1aWsx_3we-45" value="Идентификатор" style="ellipse;whiteSpace=wrap;html=1;align=center;" vertex="1" parent="1">
          <mxGeometry x="1350" y="260" width="100" height="40" as="geometry" />
        </mxCell>
        <mxCell id="QDIsxMyGxRR1aWsx_3we-46" value="Дата и время создания" style="ellipse;whiteSpace=wrap;html=1;align=center;" vertex="1" parent="1">
          <mxGeometry x="1350" y="800" width="100" height="40" as="geometry" />
        </mxCell>
        <mxCell id="QDIsxMyGxRR1aWsx_3we-47" value="&lt;font style=&quot;font-size: 12px;&quot;&gt;n&lt;/font&gt;" style="edgeStyle=orthogonalEdgeStyle;rounded=0;orthogonalLoop=1;jettySize=auto;html=1;exitX=1;exitY=0.5;exitDx=0;exitDy=0;entryX=0;entryY=0.5;entryDx=0;entryDy=0;endArrow=none;endFill=0;" edge="1" parent="1" source="QDIsxMyGxRR1aWsx_3we-48" target="QDIsxMyGxRR1aWsx_3we-6">
          <mxGeometry x="0.8049" y="12" relative="1" as="geometry">
            <mxPoint as="offset" />
          </mxGeometry>
        </mxCell>
        <mxCell id="QDIsxMyGxRR1aWsx_3we-48" value="Содержит" style="shape=rhombus;perimeter=rhombusPerimeter;whiteSpace=wrap;html=1;align=center;" vertex="1" parent="1">
          <mxGeometry x="1100" y="450" width="98" height="40" as="geometry" />
        </mxCell>
        <mxCell id="QDIsxMyGxRR1aWsx_3we-49" value="" style="edgeStyle=orthogonalEdgeStyle;fontSize=12;html=1;endArrow=ERmany;rounded=0;exitX=0;exitY=0.5;exitDx=0;exitDy=0;" edge="1" parent="1" source="QDIsxMyGxRR1aWsx_3we-48">
          <mxGeometry width="100" height="100" relative="1" as="geometry">
            <mxPoint x="1198" y="480" as="sourcePoint" />
            <mxPoint x="1010" y="470" as="targetPoint" />
          </mxGeometry>
        </mxCell>
        <mxCell id="QDIsxMyGxRR1aWsx_3we-50" value="m" style="edgeLabel;html=1;align=center;verticalAlign=middle;resizable=0;points=[];" vertex="1" connectable="0" parent="QDIsxMyGxRR1aWsx_3we-49">
          <mxGeometry x="0.2364" y="-1" relative="1" as="geometry">
            <mxPoint x="-24" y="-9" as="offset" />
          </mxGeometry>
        </mxCell>
        <mxCell id="QDIsxMyGxRR1aWsx_3we-51" value="Содержит" style="shape=rhombus;perimeter=rhombusPerimeter;whiteSpace=wrap;html=1;align=center;" vertex="1" parent="1">
          <mxGeometry x="1440" y="450" width="98" height="40" as="geometry" />
        </mxCell>
        <mxCell id="QDIsxMyGxRR1aWsx_3we-52" value="Оставить" style="shape=rhombus;perimeter=rhombusPerimeter;whiteSpace=wrap;html=1;align=center;" vertex="1" parent="1">
          <mxGeometry x="1591" y="550" width="98" height="40" as="geometry" />
        </mxCell>
        <mxCell id="QDIsxMyGxRR1aWsx_3we-53" style="edgeStyle=orthogonalEdgeStyle;rounded=0;orthogonalLoop=1;jettySize=auto;html=1;entryX=0;entryY=0.5;entryDx=0;entryDy=0;endArrow=none;endFill=0;" edge="1" parent="1" target="QDIsxMyGxRR1aWsx_3we-65">
          <mxGeometry relative="1" as="geometry">
            <Array as="points">
              <mxPoint x="960" y="419" />
            </Array>
            <mxPoint x="960" y="450" as="sourcePoint" />
          </mxGeometry>
        </mxCell>
        <mxCell id="QDIsxMyGxRR1aWsx_3we-54" style="edgeStyle=orthogonalEdgeStyle;rounded=0;orthogonalLoop=1;jettySize=auto;html=1;entryX=1;entryY=0.5;entryDx=0;entryDy=0;endArrow=none;endFill=0;" edge="1" parent="1" target="QDIsxMyGxRR1aWsx_3we-66">
          <mxGeometry relative="1" as="geometry">
            <Array as="points">
              <mxPoint x="960" y="390" />
            </Array>
            <mxPoint x="960" y="450" as="sourcePoint" />
          </mxGeometry>
        </mxCell>
        <mxCell id="QDIsxMyGxRR1aWsx_3we-55" style="edgeStyle=orthogonalEdgeStyle;rounded=0;orthogonalLoop=1;jettySize=auto;html=1;entryX=0;entryY=0.5;entryDx=0;entryDy=0;endArrow=none;endFill=0;" edge="1" parent="1" target="QDIsxMyGxRR1aWsx_3we-80">
          <mxGeometry relative="1" as="geometry">
            <Array as="points">
              <mxPoint x="960" y="369" />
            </Array>
            <mxPoint x="960" y="450" as="sourcePoint" />
          </mxGeometry>
        </mxCell>
        <mxCell id="QDIsxMyGxRR1aWsx_3we-56" value="" style="edgeStyle=orthogonalEdgeStyle;fontSize=12;html=1;endArrow=ERmany;rounded=0;exitX=1;exitY=0.5;exitDx=0;exitDy=0;entryX=0;entryY=0.5;entryDx=0;entryDy=0;" edge="1" parent="1" source="QDIsxMyGxRR1aWsx_3we-51" target="QDIsxMyGxRR1aWsx_3we-20">
          <mxGeometry width="100" height="100" relative="1" as="geometry">
            <mxPoint x="1340" y="605" as="sourcePoint" />
            <mxPoint x="1340" y="660" as="targetPoint" />
          </mxGeometry>
        </mxCell>
        <mxCell id="QDIsxMyGxRR1aWsx_3we-57" value="n" style="edgeLabel;html=1;align=center;verticalAlign=middle;resizable=0;points=[];" vertex="1" connectable="0" parent="QDIsxMyGxRR1aWsx_3we-56">
          <mxGeometry x="0.2364" y="-1" relative="1" as="geometry">
            <mxPoint x="11" y="-11" as="offset" />
          </mxGeometry>
        </mxCell>
        <mxCell id="QDIsxMyGxRR1aWsx_3we-58" value="" style="edgeStyle=orthogonalEdgeStyle;fontSize=12;html=1;endArrow=ERmany;rounded=0;exitX=0.5;exitY=0;exitDx=0;exitDy=0;" edge="1" parent="1" source="QDIsxMyGxRR1aWsx_3we-52" target="QDIsxMyGxRR1aWsx_3we-20">
          <mxGeometry width="100" height="100" relative="1" as="geometry">
            <mxPoint x="1548" y="480" as="sourcePoint" />
            <mxPoint x="1600" y="480" as="targetPoint" />
          </mxGeometry>
        </mxCell>
        <mxCell id="QDIsxMyGxRR1aWsx_3we-59" value="n" style="edgeLabel;html=1;align=center;verticalAlign=middle;resizable=0;points=[];" vertex="1" connectable="0" parent="QDIsxMyGxRR1aWsx_3we-58">
          <mxGeometry x="0.2364" y="-1" relative="1" as="geometry">
            <mxPoint x="9" y="-11" as="offset" />
          </mxGeometry>
        </mxCell>
        <mxCell id="QDIsxMyGxRR1aWsx_3we-60" value="Идентификатор" style="ellipse;whiteSpace=wrap;html=1;align=center;" vertex="1" parent="1">
          <mxGeometry x="1650" y="399" width="100" height="40" as="geometry" />
        </mxCell>
        <mxCell id="QDIsxMyGxRR1aWsx_3we-61" value="Идентификатор&lt;br&gt;пользователя" style="ellipse;whiteSpace=wrap;html=1;align=center;" vertex="1" parent="1">
          <mxGeometry x="1650" y="350" width="100" height="40" as="geometry" />
        </mxCell>
        <mxCell id="QDIsxMyGxRR1aWsx_3we-62" value="&lt;div&gt;Идентификатор&lt;/div&gt;&lt;div&gt;книги&lt;/div&gt;" style="ellipse;whiteSpace=wrap;html=1;align=center;" vertex="1" parent="1">
          <mxGeometry x="1650" y="299" width="100" height="40" as="geometry" />
        </mxCell>
        <mxCell id="QDIsxMyGxRR1aWsx_3we-63" value="Комментарий" style="ellipse;whiteSpace=wrap;html=1;align=center;" vertex="1" parent="1">
          <mxGeometry x="1530" y="380" width="100" height="40" as="geometry" />
        </mxCell>
        <mxCell id="QDIsxMyGxRR1aWsx_3we-64" value="&lt;div&gt;Дата и время&lt;/div&gt;&lt;div&gt;создания&lt;br&gt;&lt;/div&gt;" style="ellipse;whiteSpace=wrap;html=1;align=center;" vertex="1" parent="1">
          <mxGeometry x="1530" y="329" width="100" height="40" as="geometry" />
        </mxCell>
        <mxCell id="QDIsxMyGxRR1aWsx_3we-65" value="Идентификатор" style="ellipse;whiteSpace=wrap;html=1;align=center;" vertex="1" parent="1">
          <mxGeometry x="970" y="399" width="100" height="40" as="geometry" />
        </mxCell>
        <mxCell id="QDIsxMyGxRR1aWsx_3we-66" value="Название" style="ellipse;whiteSpace=wrap;html=1;align=center;" vertex="1" parent="1">
          <mxGeometry x="850" y="370" width="100" height="40" as="geometry" />
        </mxCell>
        <mxCell id="QDIsxMyGxRR1aWsx_3we-67" value="Идентификатор" style="ellipse;whiteSpace=wrap;html=1;align=center;" vertex="1" parent="1">
          <mxGeometry x="920" y="690" width="100" height="40" as="geometry" />
        </mxCell>
        <mxCell id="QDIsxMyGxRR1aWsx_3we-68" value="Название" style="ellipse;whiteSpace=wrap;html=1;align=center;" vertex="1" parent="1">
          <mxGeometry x="920" y="750" width="100" height="40" as="geometry" />
        </mxCell>
        <mxCell id="QDIsxMyGxRR1aWsx_3we-69" style="edgeStyle=orthogonalEdgeStyle;rounded=0;orthogonalLoop=1;jettySize=auto;html=1;entryX=0.5;entryY=0;entryDx=0;entryDy=0;endArrow=none;endFill=0;" edge="1" parent="1" target="QDIsxMyGxRR1aWsx_3we-92">
          <mxGeometry relative="1" as="geometry">
            <Array as="points">
              <mxPoint x="840" y="741" />
            </Array>
            <mxPoint x="1030" y="740.5142857142857" as="sourcePoint" />
          </mxGeometry>
        </mxCell>
        <mxCell id="QDIsxMyGxRR1aWsx_3we-70" value="" style="edgeStyle=orthogonalEdgeStyle;rounded=0;orthogonalLoop=1;jettySize=auto;html=1;endArrow=none;endFill=0;" edge="1" parent="1" target="QDIsxMyGxRR1aWsx_3we-52">
          <mxGeometry relative="1" as="geometry">
            <mxPoint x="1640" y="650" as="sourcePoint" />
          </mxGeometry>
        </mxCell>
        <mxCell id="QDIsxMyGxRR1aWsx_3we-71" value="1" style="edgeLabel;html=1;align=center;verticalAlign=middle;resizable=0;points=[];" vertex="1" connectable="0" parent="QDIsxMyGxRR1aWsx_3we-70">
          <mxGeometry x="-0.6491" relative="1" as="geometry">
            <mxPoint x="10" as="offset" />
          </mxGeometry>
        </mxCell>
        <mxCell id="QDIsxMyGxRR1aWsx_3we-72" style="edgeStyle=orthogonalEdgeStyle;rounded=0;orthogonalLoop=1;jettySize=auto;html=1;entryX=0;entryY=0.5;entryDx=0;entryDy=0;endArrow=none;endFill=0;" edge="1" parent="1" target="QDIsxMyGxRR1aWsx_3we-79">
          <mxGeometry relative="1" as="geometry">
            <Array as="points">
              <mxPoint x="1640" y="720" />
            </Array>
            <mxPoint x="1640" y="690" as="sourcePoint" />
            <mxPoint x="1630.9999999999995" y="740.0000000000002" as="targetPoint" />
          </mxGeometry>
        </mxCell>
        <mxCell id="QDIsxMyGxRR1aWsx_3we-73" style="edgeStyle=orthogonalEdgeStyle;rounded=0;orthogonalLoop=1;jettySize=auto;html=1;entryX=1;entryY=0.5;entryDx=0;entryDy=0;endArrow=none;endFill=0;" edge="1" parent="1" target="QDIsxMyGxRR1aWsx_3we-31">
          <mxGeometry relative="1" as="geometry">
            <Array as="points">
              <mxPoint x="1640" y="789" />
            </Array>
            <mxPoint x="1640" y="690" as="sourcePoint" />
          </mxGeometry>
        </mxCell>
        <mxCell id="QDIsxMyGxRR1aWsx_3we-74" style="edgeStyle=orthogonalEdgeStyle;rounded=0;orthogonalLoop=1;jettySize=auto;html=1;entryX=1;entryY=0.5;entryDx=0;entryDy=0;endArrow=none;endFill=0;" edge="1" parent="1" target="QDIsxMyGxRR1aWsx_3we-30">
          <mxGeometry relative="1" as="geometry">
            <Array as="points">
              <mxPoint x="1640" y="839" />
            </Array>
            <mxPoint x="1640" y="690" as="sourcePoint" />
          </mxGeometry>
        </mxCell>
        <mxCell id="QDIsxMyGxRR1aWsx_3we-75" style="edgeStyle=orthogonalEdgeStyle;rounded=0;orthogonalLoop=1;jettySize=auto;html=1;entryX=0;entryY=0.5;entryDx=0;entryDy=0;endArrow=none;endFill=0;" edge="1" parent="1" target="QDIsxMyGxRR1aWsx_3we-29">
          <mxGeometry relative="1" as="geometry">
            <mxPoint x="1640" y="690" as="sourcePoint" />
            <Array as="points">
              <mxPoint x="1640" y="820" />
            </Array>
          </mxGeometry>
        </mxCell>
        <mxCell id="QDIsxMyGxRR1aWsx_3we-76" style="edgeStyle=orthogonalEdgeStyle;rounded=0;orthogonalLoop=1;jettySize=auto;html=1;entryX=1;entryY=0.5;entryDx=0;entryDy=0;endArrow=none;endFill=0;" edge="1" parent="1" target="QDIsxMyGxRR1aWsx_3we-26">
          <mxGeometry relative="1" as="geometry">
            <Array as="points">
              <mxPoint x="1640" y="889" />
            </Array>
            <mxPoint x="1640" y="690" as="sourcePoint" />
          </mxGeometry>
        </mxCell>
        <mxCell id="QDIsxMyGxRR1aWsx_3we-77" style="edgeStyle=orthogonalEdgeStyle;rounded=0;orthogonalLoop=1;jettySize=auto;html=1;entryX=1;entryY=0.5;entryDx=0;entryDy=0;endArrow=none;endFill=0;" edge="1" parent="1" target="QDIsxMyGxRR1aWsx_3we-25">
          <mxGeometry relative="1" as="geometry">
            <Array as="points">
              <mxPoint x="1640" y="939" />
            </Array>
            <mxPoint x="1640" y="690" as="sourcePoint" />
          </mxGeometry>
        </mxCell>
        <mxCell id="QDIsxMyGxRR1aWsx_3we-78" style="edgeStyle=orthogonalEdgeStyle;rounded=0;orthogonalLoop=1;jettySize=auto;html=1;entryX=1;entryY=0.5;entryDx=0;entryDy=0;endArrow=none;endFill=0;" edge="1" parent="1" target="QDIsxMyGxRR1aWsx_3we-24">
          <mxGeometry relative="1" as="geometry">
            <Array as="points">
              <mxPoint x="1640" y="989" />
            </Array>
            <mxPoint x="1640" y="690" as="sourcePoint" />
          </mxGeometry>
        </mxCell>
        <mxCell id="QDIsxMyGxRR1aWsx_3we-79" value="Телефон" style="ellipse;whiteSpace=wrap;html=1;align=center;" vertex="1" parent="1">
          <mxGeometry x="1660" y="700" width="100" height="40" as="geometry" />
        </mxCell>
        <mxCell id="QDIsxMyGxRR1aWsx_3we-80" value="&lt;div&gt;Страна&lt;/div&gt;" style="ellipse;whiteSpace=wrap;html=1;align=center;" vertex="1" parent="1">
          <mxGeometry x="970" y="349" width="100" height="40" as="geometry" />
        </mxCell>
        <mxCell id="QDIsxMyGxRR1aWsx_3we-81" style="edgeStyle=orthogonalEdgeStyle;rounded=0;orthogonalLoop=1;jettySize=auto;html=1;entryX=0.5;entryY=1;entryDx=0;entryDy=0;endArrow=none;endFill=0;" edge="1" parent="1" source="QDIsxMyGxRR1aWsx_3we-84" target="QDIsxMyGxRR1aWsx_3we-89">
          <mxGeometry relative="1" as="geometry">
            <Array as="points">
              <mxPoint x="840" y="590" />
            </Array>
          </mxGeometry>
        </mxCell>
        <mxCell id="QDIsxMyGxRR1aWsx_3we-82" style="edgeStyle=orthogonalEdgeStyle;rounded=0;orthogonalLoop=1;jettySize=auto;html=1;entryX=0.5;entryY=0;entryDx=0;entryDy=0;endArrow=none;endFill=0;" edge="1" parent="1" source="QDIsxMyGxRR1aWsx_3we-84" target="QDIsxMyGxRR1aWsx_3we-90">
          <mxGeometry relative="1" as="geometry" />
        </mxCell>
        <mxCell id="QDIsxMyGxRR1aWsx_3we-83" style="edgeStyle=orthogonalEdgeStyle;rounded=0;orthogonalLoop=1;jettySize=auto;html=1;entryX=0.5;entryY=0;entryDx=0;entryDy=0;endArrow=none;endFill=0;" edge="1" parent="1" source="QDIsxMyGxRR1aWsx_3we-84" target="QDIsxMyGxRR1aWsx_3we-91">
          <mxGeometry relative="1" as="geometry" />
        </mxCell>
        <mxCell id="QDIsxMyGxRR1aWsx_3we-84" value="Подборка" style="whiteSpace=wrap;html=1;align=center;" vertex="1" parent="1">
          <mxGeometry x="910" y="570" width="100" height="40" as="geometry" />
        </mxCell>
        <mxCell id="QDIsxMyGxRR1aWsx_3we-85" value="Содержит" style="shape=rhombus;perimeter=rhombusPerimeter;whiteSpace=wrap;html=1;align=center;" vertex="1" parent="1">
          <mxGeometry x="1100" y="570" width="98" height="40" as="geometry" />
        </mxCell>
        <mxCell id="QDIsxMyGxRR1aWsx_3we-86" value="" style="edgeStyle=orthogonalEdgeStyle;fontSize=12;html=1;endArrow=ERmany;rounded=0;exitX=0;exitY=0.5;exitDx=0;exitDy=0;entryX=1;entryY=0.5;entryDx=0;entryDy=0;" edge="1" parent="1" source="QDIsxMyGxRR1aWsx_3we-85" target="QDIsxMyGxRR1aWsx_3we-84">
          <mxGeometry width="100" height="100" relative="1" as="geometry">
            <mxPoint x="1130" y="500" as="sourcePoint" />
            <mxPoint x="1040" y="500" as="targetPoint" />
          </mxGeometry>
        </mxCell>
        <mxCell id="QDIsxMyGxRR1aWsx_3we-87" value="m" style="edgeLabel;html=1;align=center;verticalAlign=middle;resizable=0;points=[];" vertex="1" connectable="0" parent="QDIsxMyGxRR1aWsx_3we-86">
          <mxGeometry x="0.2364" y="-1" relative="1" as="geometry">
            <mxPoint x="-24" y="-9" as="offset" />
          </mxGeometry>
        </mxCell>
        <mxCell id="QDIsxMyGxRR1aWsx_3we-88" value="n" style="edgeStyle=orthogonalEdgeStyle;fontSize=12;html=1;endArrow=ERmany;rounded=0;exitX=1;exitY=0.5;exitDx=0;exitDy=0;entryX=0;entryY=0.75;entryDx=0;entryDy=0;" edge="1" parent="1" source="QDIsxMyGxRR1aWsx_3we-85" target="QDIsxMyGxRR1aWsx_3we-6">
          <mxGeometry x="0.8958" y="-10" width="100" height="100" relative="1" as="geometry">
            <mxPoint x="1140" y="510" as="sourcePoint" />
            <mxPoint x="1050" y="510" as="targetPoint" />
            <Array as="points">
              <mxPoint x="1230" y="590" />
              <mxPoint x="1230" y="480" />
            </Array>
            <mxPoint as="offset" />
          </mxGeometry>
        </mxCell>
        <mxCell id="QDIsxMyGxRR1aWsx_3we-89" value="Идентификатор" style="ellipse;whiteSpace=wrap;html=1;align=center;" vertex="1" parent="1">
          <mxGeometry x="790" y="540" width="100" height="40" as="geometry" />
        </mxCell>
        <mxCell id="QDIsxMyGxRR1aWsx_3we-90" value="Название" style="ellipse;whiteSpace=wrap;html=1;align=center;" vertex="1" parent="1">
          <mxGeometry x="790" y="610" width="100" height="40" as="geometry" />
        </mxCell>
        <mxCell id="QDIsxMyGxRR1aWsx_3we-91" value="Описание" style="ellipse;whiteSpace=wrap;html=1;align=center;" vertex="1" parent="1">
          <mxGeometry x="670" y="610" width="100" height="40" as="geometry" />
        </mxCell>
        <mxCell id="QDIsxMyGxRR1aWsx_3we-92" value="Описание" style="ellipse;whiteSpace=wrap;html=1;align=center;" vertex="1" parent="1">
          <mxGeometry x="790" y="750" width="100" height="40" as="geometry" />
        </mxCell>
        <mxCell id="QDIsxMyGxRR1aWsx_3we-93" value="Идентификатор" style="ellipse;whiteSpace=wrap;html=1;align=center;" vertex="1" parent="1">
          <mxGeometry x="1350" y="850" width="100" height="40" as="geometry" />
        </mxCell>
        <mxCell id="QDIsxMyGxRR1aWsx_3we-94" value="Пользователь" style="whiteSpace=wrap;html=1;align=center;" vertex="1" parent="1">
          <mxGeometry x="1590" y="650" width="100" height="40" as="geometry" />
        </mxCell>
        <mxCell id="QDIsxMyGxRR1aWsx_3we-95" value="Автор" style="whiteSpace=wrap;html=1;align=center;" vertex="1" parent="1">
          <mxGeometry x="911" y="450" width="100" height="40" as="geometry" />
        </mxCell>
        <mxCell id="QDIsxMyGxRR1aWsx_3we-96" style="edgeStyle=orthogonalEdgeStyle;rounded=0;orthogonalLoop=1;jettySize=auto;html=1;entryX=0;entryY=0.5;entryDx=0;entryDy=0;endArrow=none;endFill=0;" edge="1" parent="1">
          <mxGeometry relative="1" as="geometry">
            <Array as="points">
              <mxPoint x="1640" y="770" />
            </Array>
            <mxPoint x="1640" y="740" as="sourcePoint" />
            <mxPoint x="1660" y="770" as="targetPoint" />
          </mxGeometry>
        </mxCell>
        <mxCell id="QDIsxMyGxRR1aWsx_3we-97" style="edgeStyle=orthogonalEdgeStyle;rounded=0;orthogonalLoop=1;jettySize=auto;html=1;entryX=0;entryY=0.5;entryDx=0;entryDy=0;endArrow=none;endFill=0;" edge="1" parent="1">
          <mxGeometry relative="1" as="geometry">
            <mxPoint x="1640" y="740" as="sourcePoint" />
            <mxPoint x="1660" y="870" as="targetPoint" />
            <Array as="points">
              <mxPoint x="1640" y="870" />
            </Array>
          </mxGeometry>
        </mxCell>
        <mxCell id="QDIsxMyGxRR1aWsx_3we-98" style="edgeStyle=orthogonalEdgeStyle;rounded=0;orthogonalLoop=1;jettySize=auto;html=1;entryX=0;entryY=0.5;entryDx=0;entryDy=0;endArrow=none;endFill=0;" edge="1" parent="1">
          <mxGeometry relative="1" as="geometry">
            <mxPoint x="1640" y="790" as="sourcePoint" />
            <mxPoint x="1660" y="920" as="targetPoint" />
            <Array as="points">
              <mxPoint x="1640" y="920" />
            </Array>
          </mxGeometry>
        </mxCell>
        <mxCell id="QDIsxMyGxRR1aWsx_3we-101" value="Новость" style="whiteSpace=wrap;html=1;align=center;" vertex="1" parent="1">
          <mxGeometry x="1042" y="713" width="100" height="40" as="geometry" />
        </mxCell>
        <mxCell id="QDIsxMyGxRR1aWsx_3we-102" style="edgeStyle=orthogonalEdgeStyle;rounded=0;orthogonalLoop=1;jettySize=auto;html=1;endArrow=none;endFill=0;entryX=0.523;entryY=0.993;entryDx=0;entryDy=0;entryPerimeter=0;" edge="1" parent="1" target="QDIsxMyGxRR1aWsx_3we-103">
          <mxGeometry relative="1" as="geometry">
            <mxPoint x="1042" y="740.5142857142857" as="sourcePoint" />
            <Array as="points">
              <mxPoint x="862" y="741" />
            </Array>
            <mxPoint x="862" y="733" as="targetPoint" />
          </mxGeometry>
        </mxCell>
        <mxCell id="QDIsxMyGxRR1aWsx_3we-103" value="Дата и время" style="ellipse;whiteSpace=wrap;html=1;align=center;" vertex="1" parent="1">
          <mxGeometry x="810" y="690" width="100" height="40" as="geometry" />
        </mxCell>
        <mxCell id="QDIsxMyGxRR1aWsx_3we-104" value="Дата и время" style="ellipse;whiteSpace=wrap;html=1;align=center;" vertex="1" parent="1">
          <mxGeometry x="680" y="540" width="100" height="40" as="geometry" />
        </mxCell>
        <mxCell id="QDIsxMyGxRR1aWsx_3we-105" style="edgeStyle=orthogonalEdgeStyle;rounded=0;orthogonalLoop=1;jettySize=auto;html=1;entryX=0.5;entryY=1;entryDx=0;entryDy=0;endArrow=none;endFill=0;" edge="1" parent="1" target="QDIsxMyGxRR1aWsx_3we-104">
          <mxGeometry relative="1" as="geometry">
            <mxPoint x="910" y="590" as="sourcePoint" />
            <mxPoint x="730" y="620" as="targetPoint" />
            <Array as="points">
              <mxPoint x="730" y="590" />
            </Array>
          </mxGeometry>
        </mxCell>
        <mxCell id="QDIsxMyGxRR1aWsx_3we-106" value="ББК класс" style="ellipse;whiteSpace=wrap;html=1;align=center;" vertex="1" parent="1">
          <mxGeometry x="1350" y="359" width="100" height="40" as="geometry" />
        </mxCell>
        <mxCell id="QDIsxMyGxRR1aWsx_3we-107" style="edgeStyle=elbowEdgeStyle;rounded=0;orthogonalLoop=1;jettySize=auto;html=1;endArrow=none;endFill=0;exitX=0.294;exitY=0.005;exitDx=0;exitDy=0;exitPerimeter=0;entryX=0;entryY=0.5;entryDx=0;entryDy=0;" edge="1" parent="1" target="QDIsxMyGxRR1aWsx_3we-106">
          <mxGeometry relative="1" as="geometry">
            <mxPoint x="1310" y="450" as="sourcePoint" />
            <mxPoint x="1351" y="329" as="targetPoint" />
          </mxGeometry>
        </mxCell>
      </root>
    </mxGraphModel>
  </diagram>
</mxfile>
